<svg xmlns="http://www.w3.org/2000/svg" viewBox="0 0 69.75 60">
  <defs>
    <style>
      .cls-1 {
        fill: #f9c;
      }
    </style>
  </defs>
  <title>socail-twiiter-pink</title>
  <g id="Layer_2" data-name="Layer 2">
    <g id="Layer_1-2" data-name="Layer 1">
      <g>
        <path class="cls-1" d="M47,0h4c5.25,2.79,10.15,7.38,16.86,2.1-.36,3.44-2.63,4.53-3.49,6.73h4.43L69,9c-1.22,3.82-6,5-6.05,10.19-.37,19.11-13,34.26-31.54,39.23C29.93,58.83,28,58.21,27,60H15c-4.6-2.72-10.69-2.24-15-6.69,10.67-.56,15.3-2.19,18.8-6.59C13.4,45.44,8.88,43.11,7,37.61c1.28-1.39,3.15,0,4.52-1.82C5.37,33.26,1.62,29,1.16,22.27c2-.74,3.52,1.67,5.41.13C2.59,18,0,13.28,1.66,7c.89-3.45,1.83-3.23,4-1,6.8,7.1,15.25,11,24.88,12.59,1.65.27,3.52.82,3.34-2C33.26,7.18,38.87,2.61,47,0Z"/>
        <path class="cls-1" d="M68.76,8.83a5.91,5.91,0,0,1,.63-.6s.23.19.36.29L69,9Z"/>
      </g>
    </g>
  </g>
</svg>
