<svg xmlns="http://www.w3.org/2000/svg" viewBox="0 0 69.06 69.98">
  <defs>
    <style>
      .cls-1 {
        fill: #f2a9c9;
      }
    </style>
  </defs>
  <title>social-fb-pink</title>
  <g id="Layer_2" data-name="Layer 2">
    <g id="Layer_1-2" data-name="Layer 1">
      <path class="cls-1" d="M37,70H0V4L3.43,0h62c1.26,1.31,4,1.22,3.53,4V66c.22,1.73-.67,2.59-2.24,3-.32.09-.51.63-.76,1H51c-.33-.69-1-1.38-1-2.08C50,59,50,50,50,40.93h8.79v-11H51.23v-8h7.4l1.27-1.27V11c-4,0-8-.18-12,.07-2.32.15-4.68.74-6.32,2.78a23.28,23.28,0,0,1-2,2.05c-2.38,4.75-1.3,9.37-1.73,14.18H32.14v11H38c0,8.5,0,16.65,0,24.8C38,67.37,38,68.79,37,70Z"/>
    </g>
  </g>
</svg>
