<svg xmlns="http://www.w3.org/2000/svg" viewBox="0 0 72 72">
  <defs>
    <style>
      .cls-1 {
        fill: #f9c;
      }
    </style>
  </defs>
  <title>social-insta-pink</title>
  <g id="Layer_2" data-name="Layer 2">
    <g id="Layer_1-2" data-name="Layer 1">
      <g>
        <path class="cls-1" d="M0,55V17C2.28,13.87,2.73,9.85,5.42,6.8,8.62,3.17,13.21,2.36,17,0H54c7.16,2.44,13.79,5.44,16.21,13.63C70.64,15.09,70.3,17,72,18V55c-3.06,8.78-8.76,14.76-18,17H16c-2-2.36-5.19-2.46-7.62-4.12C3.72,64.7,2.46,59.5,0,55ZM65.78,36.24h-.22c0-2.83.08-5.66,0-8.49s-.32-5.66-.54-8.48C64.48,12.34,60.31,7.77,53.48,7a159.93,159.93,0,0,0-35.4,0A12,12,0,0,0,7,18.07,162.61,162.61,0,0,0,7,54,12,12,0,0,0,18.12,65a158.72,158.72,0,0,0,35.4,0c6.81-.76,11-5.34,11.47-12.28C65.34,47.22,65.52,41.73,65.78,36.24Z"/>
        <path class="cls-1" d="M54.07,36.2c0,10.35-8,18-18.47,17.95-10.14-.1-17.75-7.85-17.76-18.1,0-10.53,7.65-18.22,18.16-18.2S54.12,25.72,54.07,36.2ZM24,35.61C23.87,42.53,28.73,47.8,35.42,48a12,12,0,1,0,.77-24A11.67,11.67,0,0,0,24,35.61Z"/>
        <path class="cls-1" d="M59.08,16.1c0,3.06-1.35,4.66-3.8,4.79a3.75,3.75,0,0,1-4.23-3.84c-.15-2.56,1.25-4,3.8-4.17S58.83,14,59.08,16.1Z"/>
      </g>
    </g>
  </g>
</svg>
