<svg xmlns="http://www.w3.org/2000/svg" viewBox="0 0 68.91 69.96">
  <defs>
    <style>
      .cls-1 {
        fill: #f9c;
      }
    </style>
  </defs>
  <title>social-linkedin-pink</title>
  <g id="Layer_2" data-name="Layer 2">
    <g id="Layer_1-2" data-name="Layer 1">
      <path class="cls-1" d="M68.81,3.06c0,20.9-.1,41.81.1,62.71,0,3.41-.67,4.73-4.07,4-1.67-1.6-3.76-1-5.67-1-17-.05-34,0-51.06,0-7.37,0-7.84-.5-7.87-7.93L0,3.74C.89.18,3.64.05,6.59.06,24.71.09,42.84.15,61,0A9.75,9.75,0,0,1,68.81,3.06ZM26.18,42.72c0,4.47.16,9,0,13.41s3.05,3.43,5.42,3.41S37.2,60.85,37,56.19c-.2-5-.08-9.93,0-14.9.07-3.67,1.24-6.54,5.61-6.62,4.63-.09,5.33,3,5.34,6.62,0,5.13.12,10.27,0,15.4-.07,3.1,2,3.2,4,2.83,2.37-.44,6.45,2,6.73-2.39a113.07,113.07,0,0,0-.29-20.82C57,25.64,48.51,21.93,39.13,27.37c-1.08.63-1.35,1.64-2.81-.19-2.13-2.68-5.86-1.44-8.72-1-2.58.43-1.27,3.31-1.36,5.08C26,35.1,26.18,38.91,26.18,42.72ZM9.39,42.4c0,4.48.21,9-.05,13.43-.28,4.85,3.07,3.69,5.67,3.74s5.37.88,5.2-3.62c-.29-7.62-.08-15.25-.08-22.88s0-7.46-7.49-7.2c-2.74.1-3.35,1.18-3.28,3.6C9.48,33.78,9.4,38.09,9.39,42.4ZM8.92,15.27c0,3.83,2.14,5.85,5.62,6.37,3.11.47,6.67-3,6.45-6.16-.25-3.63-2.52-6-6-6.07S9.15,11.48,8.92,15.27Z"/>
    </g>
  </g>
</svg>
